<?xml version="1.0" encoding="iso-8859-1"?>
<!-- Generator: Adobe Illustrator 19.0.0, SVG Export Plug-In . SVG Version: 6.00 Build 0)  -->
<svg version="1.1" id="Capa_1" xmlns="http://www.w3.org/2000/svg" xmlns:xlink="http://www.w3.org/1999/xlink" x="0px" y="0px"
	 viewBox="0 0 512 512" style="enable-background:new 0 0 512 512;" xml:space="preserve">
<g>
	<g>
		<g>
			<path d="M503.467,213.333h-59.732v-68.267h8.531c3.678,0,6.938-2.347,8.098-5.837l8.533-25.6c0.87-2.594,0.427-5.461-1.169-7.689
				c-1.612-2.227-4.18-3.54-6.926-3.541V25.6c0-4.719-3.814-8.533-8.533-8.533h-8.533V8.533c0-4.719-3.814-8.533-8.533-8.533
				s-8.533,3.814-8.533,8.533v8.533h-8.533c-4.719,0-8.533,3.814-8.533,8.533v76.8h-0.003c-2.739,0-5.316,1.314-6.921,3.541
				c-1.604,2.227-2.039,5.094-1.169,7.689l8.533,25.6c1.161,3.49,4.42,5.837,8.09,5.837h8.536v68.267h-51.2V179.2h8.531
				c3.678,0,6.938-2.347,8.098-5.837l8.533-25.6c0.87-2.594,0.427-5.461-1.169-7.688c-1.612-2.227-4.18-3.54-6.927-3.541v-76.8
				c0-4.719-3.814-8.533-8.533-8.533h-8.533v-8.533c0-4.719-3.814-8.533-8.533-8.533s-8.533,3.814-8.533,8.533V51.2h-8.533
				c-4.719,0-8.533,3.814-8.533,8.533v76.8h-0.003c-2.739,0-5.316,1.314-6.92,3.541c-1.604,2.227-2.039,5.094-1.169,7.688
				l8.533,25.6c1.161,3.49,4.42,5.837,8.09,5.837h8.536v34.133H184.48L167.413,179.2h37.389c4.719,0,8.533-3.814,8.533-8.533v-102.4
				c0-4.719-3.814-8.533-8.533-8.533h-102.4c-4.719,0-8.533,3.814-8.533,8.533v42.667H51.202c-4.719,0-8.533,3.814-8.533,8.533
				v68.267c0,4.719,3.814,8.533,8.533,8.533h17.067l-12.8,17.067H8.533c-4.71,0-8.533,3.814-8.533,8.533v281.6
				C0,508.186,3.823,512,8.533,512h25.6c3.49,0,6.63-2.125,7.927-5.367l14.916-37.299h398.046l14.925,37.299
				c1.297,3.243,4.429,5.367,7.919,5.367h25.6c4.719,0,8.533-3.814,8.533-8.533v-281.6C512,217.148,508.186,213.333,503.467,213.333
				z M426.668,34.133h17.067V102.4h-17.067V34.133z M421.443,119.467h27.52L446.122,128h-21.837L421.443,119.467z M358.402,68.267
				h17.067v68.267h-17.067V68.267z M353.177,153.6h27.52l-2.842,8.533h-21.837L353.177,153.6z M165.392,213.333h-23.581
				l11.79-23.586L165.392,213.333z M110.935,76.8h85.333v85.333h-68.267v-42.667c0-4.719-3.814-8.533-8.533-8.533h-8.533V76.8z
				 M59.735,128h42.667h8.533v42.667v8.533h-51.2V128z M119.468,196.267c4.719,0,8.533-3.814,8.533-8.533V179.2h11.789
				l-17.067,34.133h-7.522l-12.8-17.067H119.468z M85.335,201.958l8.532,11.375H76.803L85.335,201.958z M494.933,494.933h-11.29
				l-14.916-37.299c-1.297-3.243-4.437-5.367-7.927-5.367H51.2c-3.49,0-6.622,2.125-7.919,5.367l-14.925,37.299h-11.29V230.4
				h477.867V494.933z"/>
			<path d="M34.135,256v68.267c0,4.719,3.814,8.533,8.533,8.533h426.667c4.719,0,8.533-3.814,8.533-8.533V256
				c0-4.719-3.814-8.533-8.533-8.533H42.668C37.949,247.467,34.135,251.281,34.135,256z M51.202,264.533h409.6v51.2h-409.6V264.533z
				"/>
			<path d="M145.068,281.6H85.335c-4.719,0-8.533,3.814-8.533,8.533s3.814,8.533,8.533,8.533h59.733
				c4.719,0,8.533-3.814,8.533-8.533S149.787,281.6,145.068,281.6z"/>
			<path d="M469.335,349.867H42.668c-4.719,0-8.533,3.814-8.533,8.533v68.267c0,4.719,3.814,8.533,8.533,8.533h426.667
				c4.719,0,8.533-3.814,8.533-8.533V358.4C477.868,353.681,474.054,349.867,469.335,349.867z M460.802,418.133h-409.6v-51.2h409.6
				V418.133z"/>
			<path d="M85.335,401.067h59.733c4.719,0,8.533-3.814,8.533-8.533c0-4.719-3.814-8.533-8.533-8.533H85.335
				c-4.719,0-8.533,3.814-8.533,8.533C76.802,397.252,80.616,401.067,85.335,401.067z"/>
			<path d="M426.668,281.6h-59.733c-4.719,0-8.533,3.814-8.533,8.533s3.814,8.533,8.533,8.533h59.733
				c4.719,0,8.533-3.814,8.533-8.533S431.387,281.6,426.668,281.6z"/>
			<path d="M366.935,401.067h59.733c4.719,0,8.533-3.814,8.533-8.533c0-4.719-3.814-8.533-8.533-8.533h-59.733
				c-4.719,0-8.533,3.814-8.533,8.533C358.402,397.252,362.216,401.067,366.935,401.067z"/>
		</g>
	</g>
</g>
<g>
</g>
<g>
</g>
<g>
</g>
<g>
</g>
<g>
</g>
<g>
</g>
<g>
</g>
<g>
</g>
<g>
</g>
<g>
</g>
<g>
</g>
<g>
</g>
<g>
</g>
<g>
</g>
<g>
</g>
</svg>
