<?xml version="1.0" encoding="iso-8859-1"?>
<!-- Generator: Adobe Illustrator 19.0.0, SVG Export Plug-In . SVG Version: 6.00 Build 0)  -->
<svg version="1.1" id="Capa_1" xmlns="http://www.w3.org/2000/svg" xmlns:xlink="http://www.w3.org/1999/xlink" x="0px" y="0px"
	 viewBox="0 0 480 480" style="enable-background:new 0 0 480 480;" xml:space="preserve">
<g>
	<g>
		<path d="M472,224h-15.888l7.776-46.688c0.725-4.358-2.221-8.479-6.58-9.204c-0.432-0.072-0.87-0.108-1.308-0.108h-48
			c-4.418,0.002-7.998,3.585-7.996,8.004c0,0.438,0.036,0.876,0.108,1.308L407.888,224H304v-8c0-13.255-10.745-24-24-24v-16h72
			c13.255,0,24-10.745,24-24V24c0-13.255-10.745-24-24-24H128c-13.255,0-24,10.745-24,24v128c0,13.255,10.745,24,24,24h72v16
			c-13.255,0-24,10.745-24,24v8H72.112l7.776-46.688c0.725-4.358-2.221-8.479-6.58-9.204C72.876,168.036,72.438,168,72,168H56
			v-20.688l21.656-21.656c3.069-3.178,2.981-8.243-0.197-11.312c-3.1-2.994-8.015-2.994-11.115,0L56,124.688V104
			c0-4.418-3.582-8-8-8s-8,3.582-8,8v28.688l-10.344-10.344c-3.178-3.069-8.243-2.981-11.312,0.197c-2.994,3.1-2.994,8.015,0,11.115
			L40,155.312V168H24c-4.418,0.002-7.998,3.585-7.996,8.004c0,0.438,0.036,0.876,0.108,1.308L23.888,224H8c-4.418,0-8,3.582-8,8v32
			c0,4.418,3.582,8,8,8h8v200c0,4.418,3.582,8,8,8h144c4.418,0,8-3.582,8-8V272h120v200c0,4.418,3.582,8,8,8h144
			c4.418,0,8-3.582,8-8V272h16c4.418,0,8-3.582,8-8v-32C480,227.582,476.418,224,472,224z M446.552,184l-5.328,32h-18.448l-5.328-32
			H446.552z M128,16h224c4.418,0,8,3.582,8,8H120C120,19.582,123.582,16,128,16z M120,40h240v80H120V40z M128,160
			c-4.418,0-8-3.582-8-8v-16h240v16c0,4.418-3.582,8-8,8H128z M264,176v16h-48v-16H264z M192,216c0-4.418,3.582-8,8-8h80
			c4.418,0,8,3.582,8,8v8h-96V216z M62.552,184l-5.328,32H38.776l-5.328-32H62.552z M160,464H32V272h128V464z M440,464H312V272h128
			V464z M464,256H16v-16h448V256z"/>
	</g>
</g>
<g>
	<g>
		<path d="M136,280H56c-4.418,0-8,3.582-8,8v64c0,4.418,3.582,8,8,8h80c4.418,0,8-3.582,8-8v-64C144,283.582,140.418,280,136,280z
			 M128,344H64v-48h64V344z"/>
	</g>
</g>
<g>
	<g>
		<path d="M136,376H56c-4.418,0-8,3.582-8,8v64c0,4.418,3.582,8,8,8h80c4.418,0,8-3.582,8-8v-64C144,379.582,140.418,376,136,376z
			 M128,440H64v-48h64V440z"/>
	</g>
</g>
<g>
	<g>
		<path d="M104,312H88c-4.418,0-8,3.582-8,8s3.582,8,8,8h16c4.418,0,8-3.582,8-8S108.418,312,104,312z"/>
	</g>
</g>
<g>
	<g>
		<path d="M104,408H88c-4.418,0-8,3.582-8,8s3.582,8,8,8h16c4.418,0,8-3.582,8-8S108.418,408,104,408z"/>
	</g>
</g>
<g>
	<g>
		<path d="M416,280h-80c-4.418,0-8,3.582-8,8v64c0,4.418,3.582,8,8,8h80c4.418,0,8-3.582,8-8v-64C424,283.582,420.418,280,416,280z
			 M408,344h-64v-48h64V344z"/>
	</g>
</g>
<g>
	<g>
		<path d="M416,376h-80c-4.418,0-8,3.582-8,8v64c0,4.418,3.582,8,8,8h80c4.418,0,8-3.582,8-8v-64C424,379.582,420.418,376,416,376z
			 M408,440h-64v-48h64V440z"/>
	</g>
</g>
<g>
	<g>
		<path d="M384,312h-16c-4.418,0-8,3.582-8,8s3.582,8,8,8h16c4.418,0,8-3.582,8-8S388.418,312,384,312z"/>
	</g>
</g>
<g>
	<g>
		<path d="M384,408h-16c-4.418,0-8,3.582-8,8s3.582,8,8,8h16c4.418,0,8-3.582,8-8S388.418,408,384,408z"/>
	</g>
</g>
<g>
</g>
<g>
</g>
<g>
</g>
<g>
</g>
<g>
</g>
<g>
</g>
<g>
</g>
<g>
</g>
<g>
</g>
<g>
</g>
<g>
</g>
<g>
</g>
<g>
</g>
<g>
</g>
<g>
</g>
</svg>
